<?xml version="1.0" encoding="utf-8"?>
<!-- Generator: Adobe Illustrator 22.0.0, SVG Export Plug-In . SVG Version: 6.00 Build 0)  -->
<svg version="1.0" id="Layer_1" xmlns="http://www.w3.org/2000/svg" xmlns:xlink="http://www.w3.org/1999/xlink" x="0px" y="0px"
	 viewBox="0 0 150 150" style="enable-background:new 0 0 150 150;" xml:space="preserve">
<style type="text/css">
	.st0{fill:#024C4A;}
	.st1{fill:#FFFFFF;}
</style>
<g>
	<path class="st1" d="M115.6,4.8C107.1,1.7,95.7,0,83.5,0S60,1.7,51.4,4.9c-7.5,2.8-12.1,6.5-12.1,9.9c0,3.4,4.5,7.1,12,9.9
		c8.5,3.1,19.9,4.9,32.1,4.9s23.6-1.7,32.1-4.9c7.1-2.6,11.5-6.1,12-9.3v-0.9h0C127.4,11.2,123,7.5,115.6,4.8z"/>
	<path class="st1" d="M117.3,29.2c-9.1,3.3-21.1,5.2-33.8,5.2s-24.7-1.8-33.8-5.2c-4.4-1.6-7.9-3.6-10.5-5.7v23.7l13.9,12
		c0.1,0.1,0.2,0.2,0.3,0.4l0.2,0.2l-3.1,2.4l-0.6,0.7l-0.1-0.1l0,0l0,0l-23.1-20c-0.1,0.2-0.3,0.5-0.4,0.7c-1.3,2.1-3.4,4.2-5.9,6.2
		c-2.5,1.9-5.1,3.4-7.5,4.1l0,0l27,43.6c0.7,1.1,0.4,2.5-0.6,3.3v34.8c0,3.4,4.5,7.1,12.1,9.9c8.6,3.1,20,4.9,32.1,4.9
		s23.6-1.7,32.1-4.9c7.6-2.8,12.1-6.5,12.1-9.9v-0.8l-0.1-110.8C125.1,25.7,121.6,27.6,117.3,29.2z M83.5,137.4
		c0,1.3-1.1,2.4-2.4,2.4c-1.3,0-2.4-1.1-2.4-2.4v-29.6c0-1.3,1.1-2.4,2.4-2.4c1.3,0,2.4,1.1,2.4,2.4V137.4z M83.5,62.5
		c0,1.3-1.1,2.4-2.4,2.4c-1.3,0-2.4-1.1-2.4-2.4V43.6c0-1.3,1.1-2.4,2.4-2.4c1.3,0,2.4,1.1,2.4,2.4V62.5z M97.4,137.4
		c0,1.3-1.1,2.4-2.4,2.4c-1.3,0-2.4-1.1-2.4-2.4v-20.6c0-1.3,1.1-2.4,2.4-2.4c1.3,0,2.4,1.1,2.4,2.4V137.4z M97.4,85.5
		c0,1.3-1.1,2.4-2.4,2.4c-1.3,0-2.4-1.1-2.4-2.4V44c0-1.3,1.1-2.4,2.4-2.4c1.3,0,2.4,1.1,2.4,2.4V85.5z M111.4,137.4
		c0,1.3-1.1,2.4-2.4,2.4c-1.3,0-2.4-1.1-2.4-2.4V98.7c0-1.3,1.1-2.4,2.4-2.4c1.3,0,2.4,1.1,2.4,2.4V137.4z M111.4,58.6
		c0,1.3-1.1,2.4-2.4,2.4c-1.3,0-2.4-1.1-2.4-2.4V44c0-1.3,1.1-2.4,2.4-2.4c1.3,0,2.4,1.1,2.4,2.4V58.6z"/>
	<path class="st1" d="M22.7,39.7c-1.3,0.2-4,1.2-7.1,3.6s-4.8,4.8-5.3,6c1.3-0.2,4-1.2,7.1-3.6C20.5,43.2,22.2,40.9,22.7,39.7z"/>
</g>
</svg>
