<?xml version="1.0" encoding="utf-8"?>
<!-- Generator: Adobe Illustrator 22.0.0, SVG Export Plug-In . SVG Version: 6.00 Build 0)  -->
<svg version="1.0" id="Layer_1" xmlns="http://www.w3.org/2000/svg" xmlns:xlink="http://www.w3.org/1999/xlink" x="0px" y="0px"
	 viewBox="0 0 150 150" style="enable-background:new 0 0 150 150;" xml:space="preserve">
<style type="text/css">
	.st0{fill:#024C4A;}
	.st1{fill:#FFFFFF;}
</style>
<g>
	<g>
		<g>
			<path class="st1" d="M0,65v20h100V65H0z M97.5,80c0,1.4-1.1,2.5-2.5,2.5s-2.5-1.1-2.5-2.5c0-1.4,1.1-2.5,2.5-2.5
				C96.4,77.5,97.5,78.6,97.5,80z M97.5,70c0,1.4-1.1,2.5-2.5,2.5s-2.5-1.1-2.5-2.5s1.1-2.5,2.5-2.5S97.5,68.6,97.5,70z"/>
			<path class="st1" d="M0,90v20h150V90H0z M142.5,105c0,1.4-1.1,2.5-2.5,2.5s-2.5-1.1-2.5-2.5c0-1.4,1.1-2.5,2.5-2.5
				S142.5,103.6,142.5,105z M12.5,105c0,1.4-1.1,2.5-2.5,2.5s-2.5-1.1-2.5-2.5c0-1.4,1.1-2.5,2.5-2.5S12.5,103.6,12.5,105z
				 M142.5,95c0,1.4-1.1,2.5-2.5,2.5s-2.5-1.1-2.5-2.5c0-1.4,1.1-2.5,2.5-2.5S142.5,93.6,142.5,95z M12.5,95c0,1.4-1.1,2.5-2.5,2.5
				S7.5,96.4,7.5,95c0-1.4,1.1-2.5,2.5-2.5S12.5,93.6,12.5,95z"/>
			<path class="st1" d="M52.5,40v20H150V40H52.5z M60,55c0,1.4-1.1,2.5-2.5,2.5S55,56.4,55,55c0-1.4,1.1-2.5,2.5-2.5S60,53.6,60,55z
				 M60,45c0,1.4-1.1,2.5-2.5,2.5S55,46.4,55,45s1.1-2.5,2.5-2.5S60,43.6,60,45z"/>
			<path class="st1" d="M0,40v20h47.5V40H0z M45,55c0,1.4-1.1,2.5-2.5,2.5c-1.4,0-2.5-1.1-2.5-2.5c0-1.4,1.1-2.5,2.5-2.5
				C43.9,52.5,45,53.6,45,55z M45,45c0,1.4-1.1,2.5-2.5,2.5c-1.4,0-2.5-1.1-2.5-2.5s1.1-2.5,2.5-2.5C43.9,42.5,45,43.6,45,45z"/>
			<path class="st1" d="M150,137.5V115H80v25h67.5C148.9,140,150,138.9,150,137.5z M82.5,120c0-1.4,1.1-2.5,2.5-2.5s2.5,1.1,2.5,2.5
				c0,1.4-1.1,2.5-2.5,2.5S82.5,121.4,82.5,120z M82.5,130c0-1.4,1.1-2.5,2.5-2.5s2.5,1.1,2.5,2.5s-1.1,2.5-2.5,2.5
				S82.5,131.4,82.5,130z"/>
			<path class="st1" d="M147.5,10H2.5C1.1,10,0,11.1,0,12.5V35h150V12.5C150,11.1,148.9,10,147.5,10z M142.5,30
				c0,1.4-1.1,2.5-2.5,2.5s-2.5-1.1-2.5-2.5c0-1.4,1.1-2.5,2.5-2.5S142.5,28.6,142.5,30z M12.5,30c0,1.4-1.1,2.5-2.5,2.5
				S7.5,31.4,7.5,30c0-1.4,1.1-2.5,2.5-2.5S12.5,28.6,12.5,30z M142.5,20c0,1.4-1.1,2.5-2.5,2.5s-2.5-1.1-2.5-2.5
				c0-1.4,1.1-2.5,2.5-2.5S142.5,18.6,142.5,20z M12.5,20c0,1.4-1.1,2.5-2.5,2.5S7.5,21.4,7.5,20c0-1.4,1.1-2.5,2.5-2.5
				S12.5,18.6,12.5,20z"/>
			<path class="st1" d="M0,115v22.5c0,1.4,1.1,2.5,2.5,2.5H75v-25H0z M72.5,130c0,1.4-1.1,2.5-2.5,2.5c-1.4,0-2.5-1.1-2.5-2.5
				s1.1-2.5,2.5-2.5C71.4,127.5,72.5,128.6,72.5,130z M72.5,120c0,1.4-1.1,2.5-2.5,2.5c-1.4,0-2.5-1.1-2.5-2.5
				c0-1.4,1.1-2.5,2.5-2.5C71.4,117.5,72.5,118.6,72.5,120z"/>
			<path class="st1" d="M105,65v20h45V65H105z M112.5,80c0,1.4-1.1,2.5-2.5,2.5c-1.4,0-2.5-1.1-2.5-2.5c0-1.4,1.1-2.5,2.5-2.5
				C111.4,77.5,112.5,78.6,112.5,80z M112.5,70c0,1.4-1.1,2.5-2.5,2.5c-1.4,0-2.5-1.1-2.5-2.5s1.1-2.5,2.5-2.5
				C111.4,67.5,112.5,68.6,112.5,70z"/>
		</g>
	</g>
</g>
</svg>
