<?xml version="1.0" encoding="utf-8"?>
<!-- Generator: Adobe Illustrator 22.0.0, SVG Export Plug-In . SVG Version: 6.00 Build 0)  -->
<svg version="1.0" id="Layer_1" xmlns="http://www.w3.org/2000/svg" xmlns:xlink="http://www.w3.org/1999/xlink" x="0px" y="0px"
	 viewBox="0 0 150 150" style="enable-background:new 0 0 150 150;" xml:space="preserve">
<style type="text/css">
	.st0{fill:#024C4A;}
	.st1{fill:#FFFFFF;}
</style>
<g>
	<g>
		<path class="st1" d="M147.8,73.2H2.2c-1.2,0-2.2,1-2.2,2.2v72.4c0,1.2,1,2.2,2.2,2.2h145.6c1.2,0,2.2-1,2.2-2.2V75.4
			C150,74.2,149,73.2,147.8,73.2z M145.6,145.6H4.4V86.4h141.2V145.6z"/>
		<path class="st1" d="M147.8,0H2.2C1,0,0,1,0,2.2V11c0,1.2,1,2.2,2.2,2.2h26.7v13.4c-6.6,0.5-11.7,6-11.7,12.7
			c0,1.9,1.5,3.4,3.4,3.4h4v0.1c0,3.6,3,6.6,6.6,6.6s6.6-3,6.6-6.6v-0.1h4c1.9,0,3.4-1.5,3.4-3.4c0-6.7-5.2-12.2-11.7-12.7V13.2
			h39.6v13.4c-6.6,0.5-11.7,6-11.7,12.7c0,1.9,1.5,3.4,3.4,3.4h4v0.1c0,3.6,3,6.6,6.6,6.6s6.6-3,6.6-6.6v-0.1h4
			c1.9,0,3.4-1.5,3.4-3.4c0-6.7-5.2-12.2-11.7-12.7V13.2h39.6v13.4c-6.6,0.5-11.7,6-11.7,12.7c0,1.9,1.5,3.4,3.4,3.4h4v0.1
			c0,3.6,3,6.6,6.6,6.6s6.6-3,6.6-6.6v-0.1h4c1.9,0,3.4-1.5,3.4-3.4c0-6.7-5.2-12.2-11.7-12.7V13.2h26.7c1.2,0,2.2-1,2.2-2.2V2.2
			C150,1,149,0,147.8,0z M31.1,45c-1.2,0-2.2-1-2.2-2.2c0,0,0-0.1,0-0.1h4.4c0,0,0,0.1,0,0.1C33.3,44,32.3,45,31.1,45z M75,45
			c-1.2,0-2.2-1-2.2-2.2c0,0,0-0.1,0-0.1h4.4c0,0,0,0.1,0,0.1C77.2,44,76.2,45,75,45z M118.9,45c-1.2,0-2.2-1-2.2-2.2
			c0,0,0-0.1,0-0.1h4.4c0,0,0,0.1,0,0.1C121.1,44,120.2,45,118.9,45z"/>
	</g>
	<path class="st1" d="M70.6,90.8H11c-1.2,0-2.2,1-2.2,2.2v46c0,1.2,1,2.2,2.2,2.2h59.6c1.2,0,2.2-1,2.2-2.2V93
		C72.8,91.8,71.8,90.8,70.6,90.8z M18.6,131v-30.9H63V131H18.6z"/>
	<path class="st1" d="M139,90.8H79.4c-1.2,0-2.2,1-2.2,2.2v46c0,1.2,1,2.2,2.2,2.2H139c1.2,0,2.2-1,2.2-2.2V93
		C141.2,91.8,140.2,90.8,139,90.8z M87,131v-30.9h44.4V131H87z"/>
</g>
</svg>
