<?xml version="1.0" encoding="utf-8"?>
<!-- Generator: Adobe Illustrator 22.0.0, SVG Export Plug-In . SVG Version: 6.00 Build 0)  -->
<svg version="1.0" id="Layer_1" xmlns="http://www.w3.org/2000/svg" xmlns:xlink="http://www.w3.org/1999/xlink" x="0px" y="0px"
	 viewBox="0 0 150 150" style="enable-background:new 0 0 150 150;" xml:space="preserve">
<style type="text/css">
	.st0{fill:#024C4A;}
	.st1{fill:#FFFFFF;}
</style>
<path class="st0" d="M135.1,44.5h-3.1C129.7,19.6,108.7,0,83.2,0H66.8C41.3,0,20.3,19.6,18.1,44.5h-3.1c-2.4,0-4.4,2-4.4,4.4
	s2,4.4,4.4,4.4h2.9v83.5c0,7.3,5.9,13.2,13.2,13.2h87.9c7.3,0,13.2-5.9,13.2-13.2V111c-4.7,4.2-10.8,6.7-17.6,6.7
	c-0.1,0-0.3,0-0.4,0c-7-0.1-13.6-3-18.5-8c-2.1-2.2-3.8-4.7-5-7.4c-4,4.1-9.5,6.6-15.6,6.6c-0.1,0-0.2,0-0.4,0
	c-5.8-0.1-11.2-2.4-15.3-6.6C55.3,98.3,53,92.8,53,87V44.5H26.9C29.1,24.5,46.1,8.8,66.8,8.8h16.4c20.6,0,37.7,15.7,39.9,35.7H61.8
	V87c0,7.2,5.8,13.1,13,13.2c7.4,0.1,13.4-6,13.4-13.4v-7.1c0-2.5,2.1-4.5,4.6-4.4c2.4,0.1,4.2,2.2,4.2,4.5v11.3
	c0,9.6,7.7,17.7,17.3,17.8c9.8,0.1,17.9-7.8,17.9-17.6V53.3h2.9c2.4,0,4.4-2,4.4-4.4S137.5,44.5,135.1,44.5z"/>
</svg>
