<?xml version="1.0" encoding="utf-8"?>
<!-- Generator: Adobe Illustrator 22.0.0, SVG Export Plug-In . SVG Version: 6.00 Build 0)  -->
<svg version="1.0" id="Layer_1" xmlns="http://www.w3.org/2000/svg" xmlns:xlink="http://www.w3.org/1999/xlink" x="0px" y="0px"
	 viewBox="0 0 150 150" style="enable-background:new 0 0 150 150;" xml:space="preserve">
<style type="text/css">
	.st0{fill:#024C4A;}
	.st1{fill:#FFFFFF;}
</style>
<g>
	<g>
		<g>
			<path class="st0" d="M144.2,0h-23.1H98.1H75H5.8C2.6,0,0,2.6,0,5.8v23.1v23.1V75v69.2c0,3.2,2.6,5.8,5.8,5.8h23.1h23.1H75h69.2
				c3.2,0,5.8-2.6,5.8-5.8v-23.1V98.1V75V5.8C150,2.6,147.4,0,144.2,0z M23.1,138.5H11.5V80.8h11.5L23.1,138.5L23.1,138.5z
				 M46.2,138.5H34.6V80.8h11.5V138.5z M69.2,98.1v23.1v17.3H57.7V80.8h11.5V98.1z M69.2,69.2H51.9H28.8H11.5V57.7h57.7V69.2z
				 M69.2,46.2H11.5V34.6h57.7V46.2z M69.2,23.1H11.5V11.5h57.7V23.1z M103.8,11.5h11.5v57.7h-11.5V11.5z M80.8,51.9V28.8V11.5h11.5
				v57.7H80.8V51.9z M138.5,138.5H80.8v-11.5h57.7V138.5z M138.5,115.4H80.8v-11.5h57.7V115.4z M138.5,92.3H80.8V80.8h17.3h23.1
				h17.3V92.3L138.5,92.3z M138.5,69.2h-11.5V11.5h11.5V69.2z"/>
		</g>
	</g>
</g>
</svg>
